<?xml version="1.0" encoding="UTF-8"?>

<!DOCTYPE svg PUBLIC '-//W3C//DTD SVG 1.0//EN' 'http://www.w3.org/TR/2001/REC-SVG-20010904/DTD/svg10.dtd'>
<svg style="fill-opacity:1; color-rendering:auto; color-interpolation:auto; text-rendering:auto; stroke:black; stroke-linecap:square; stroke-miterlimit:10; shape-rendering:auto; stroke-opacity:1; fill:black; stroke-dasharray:none; font-weight:normal; stroke-width:1; font-family:&apos;Dialog&apos;; font-style:normal; stroke-linejoin:miter; font-size:12; stroke-dashoffset:0; image-rendering:auto;" xmlns="http://www.w3.org/2000/svg" width="746" xmlns:xlink="http://www.w3.org/1999/xlink" height="476">
  <!--Generated by the Batik Graphics2D SVG Generator-->
  <defs id="genericDefs" />
  <g>
    <defs id="defs1">
      <clipPath clipPathUnits="userSpaceOnUse" id="clipPath1">
        <path d="M-3 -3 L227 -3 L227 67 L-3 67 L-3 -3 Z" />
      </clipPath>
      <clipPath clipPathUnits="userSpaceOnUse" id="clipPath2">
        <path d="M0 0 L0 52 L220 52 L220 0 Z" />
      </clipPath>
      <clipPath clipPathUnits="userSpaceOnUse" id="clipPath3">
        <path d="M0 0 L0 15 L220 15 L220 0 Z" />
      </clipPath>
      <clipPath clipPathUnits="userSpaceOnUse" id="clipPath4">
        <path d="M-3 -3 L97 -3 L97 57 L-3 57 L-3 -3 Z" />
      </clipPath>
      <clipPath clipPathUnits="userSpaceOnUse" id="clipPath5">
        <path d="M0 0 L0 42 L90 42 L90 0 Z" />
      </clipPath>
      <clipPath clipPathUnits="userSpaceOnUse" id="clipPath6">
        <path d="M0 0 L0 15 L90 15 L90 0 Z" />
      </clipPath>
      <clipPath clipPathUnits="userSpaceOnUse" id="clipPath7">
        <path d="M-3 -3 L317 -3 L317 67 L-3 67 L-3 -3 Z" />
      </clipPath>
      <clipPath clipPathUnits="userSpaceOnUse" id="clipPath8">
        <path d="M0 0 L0 52 L310 52 L310 0 Z" />
      </clipPath>
      <clipPath clipPathUnits="userSpaceOnUse" id="clipPath9">
        <path d="M0 0 L0 15 L310 15 L310 0 Z" />
      </clipPath>
      <clipPath clipPathUnits="userSpaceOnUse" id="clipPath10">
        <path d="M-3 -3 L127 -3 L127 57 L-3 57 L-3 -3 Z" />
      </clipPath>
      <clipPath clipPathUnits="userSpaceOnUse" id="clipPath11">
        <path d="M0 0 L0 42 L120 42 L120 0 Z" />
      </clipPath>
      <clipPath clipPathUnits="userSpaceOnUse" id="clipPath12">
        <path d="M0 0 L0 15 L120 15 L120 0 Z" />
      </clipPath>
      <clipPath clipPathUnits="userSpaceOnUse" id="clipPath13">
        <path d="M-3 -3 L47 -3 L47 27 L-3 27 L-3 -3 Z" />
      </clipPath>
      <clipPath clipPathUnits="userSpaceOnUse" id="clipPath14">
        <path d="M0 0 L0 60 L220 60 L220 0 Z" />
      </clipPath>
      <clipPath clipPathUnits="userSpaceOnUse" id="clipPath15">
        <path d="M-3 -3 L307 -3 L307 47 L-3 47 L-3 -3 Z" />
      </clipPath>
      <clipPath clipPathUnits="userSpaceOnUse" id="clipPath16">
        <path d="M0 0 L0 40 L300 40 L300 0 Z" />
      </clipPath>
      <clipPath clipPathUnits="userSpaceOnUse" id="clipPath17">
        <path d="M-3 -3 L87 -3 L87 47 L-3 47 L-3 -3 Z" />
      </clipPath>
      <clipPath clipPathUnits="userSpaceOnUse" id="clipPath18">
        <path d="M0 0 L0 40 L80 40 L80 0 Z" />
      </clipPath>
      <clipPath clipPathUnits="userSpaceOnUse" id="clipPath19">
        <path d="M0 0 L40 0 L40 20 L0 20 L0 0 Z" />
      </clipPath>
      <clipPath clipPathUnits="userSpaceOnUse" id="clipPath20">
        <path d="M0 0 L233 0 L233 104 L0 104 L0 0 Z" />
      </clipPath>
      <clipPath clipPathUnits="userSpaceOnUse" id="clipPath21">
        <path d="M0 0 L104 0 L104 263 L0 263 L0 0 Z" />
      </clipPath>
      <clipPath clipPathUnits="userSpaceOnUse" id="clipPath22">
        <path d="M0 0 L403 0 L403 104 L0 104 L0 0 Z" />
      </clipPath>
      <clipPath clipPathUnits="userSpaceOnUse" id="clipPath23">
        <path d="M0 0 L104 0 L104 134 L0 134 L0 0 Z" />
      </clipPath>
      <clipPath clipPathUnits="userSpaceOnUse" id="clipPath24">
        <path d="M0 0 L194 0 L194 134 L0 134 L0 0 Z" />
      </clipPath>
    </defs>
    <g style="fill:white; text-rendering:geometricPrecision; stroke:white;">
      <rect x="0" y="0" width="746" style="stroke:none;" height="476" />
    </g>
    <g transform="translate(82,202)" style="stroke-linecap:butt; font-size:11; text-rendering:geometricPrecision; stroke-linejoin:round; font-family:sans-serif; font-weight:bold; stroke-miterlimit:0;">
      <rect x="0" y="0" width="220" style="clip-path:url(#clipPath1); fill:none;" height="60" />
      <line x1="0" x2="220" y1="15" style="clip-path:url(#clipPath1); fill:none;" y2="15" />
    </g>
    <g style="text-rendering:geometricPrecision; font-size:11; font-family:sans-serif;" transform="translate(82,217)">
      <text x="2" y="14" style="clip-path:url(#clipPath2); stroke:none;" xml:space="preserve">+positions() : IdentityDictionary</text>
      <text x="2" y="29" style="clip-path:url(#clipPath2); stroke:none;" xml:space="preserve">+balls() : IdentityDictionary</text>
      <text x="2" y="44" style="clip-path:url(#clipPath2); stroke:none;" xml:space="preserve">+backgroundFor(aNumberOfPlayers) : Form</text>
    </g>
    <g transform="translate(82,202)" style="text-rendering:geometricPrecision; font-size:11; font-weight:bold; font-family:sans-serif;">
      <text x="83" y="12" style="clip-path:url(#clipPath3); stroke:none;" xml:space="preserve">FBTheme</text>
    </g>
    <g transform="translate(542,422)" style="stroke-linecap:butt; font-size:11; text-rendering:geometricPrecision; stroke-linejoin:round; font-family:sans-serif; font-weight:bold; stroke-miterlimit:0;">
      <rect x="0" y="0" width="90" style="clip-path:url(#clipPath4); fill:none;" height="50" />
      <line x1="0" x2="90" y1="15" style="clip-path:url(#clipPath4); fill:none;" y2="15" />
    </g>
    <g style="text-rendering:geometricPrecision; font-size:11; font-family:sans-serif;" transform="translate(542,437)">
      <text x="2" y="14" style="clip-path:url(#clipPath5); stroke:none;" xml:space="preserve">+endGame()</text>
      <text x="2" y="29" style="clip-path:url(#clipPath5); stroke:none;" xml:space="preserve">+initializeWorld()</text>
    </g>
    <g transform="translate(542,422)" style="text-rendering:geometricPrecision; font-size:11; font-weight:bold; font-family:sans-serif;">
      <text x="22" y="12" style="clip-path:url(#clipPath6); stroke:none;" xml:space="preserve">FBGame</text>
    </g>
    <g transform="translate(432,202)" style="stroke-linecap:butt; font-size:11; text-rendering:geometricPrecision; stroke-linejoin:round; font-family:sans-serif; font-weight:bold; stroke-miterlimit:0;">
      <rect x="0" y="0" width="310" style="clip-path:url(#clipPath7); fill:none;" height="60" />
      <line x1="0" x2="310" y1="15" style="clip-path:url(#clipPath7); fill:none;" y2="15" />
    </g>
    <g style="text-rendering:geometricPrecision; font-size:11; font-family:sans-serif;" transform="translate(432,217)">
      <text x="2" y="14" style="clip-path:url(#clipPath8); stroke:none;" xml:space="preserve">+initializePlayfield:Within(aNumber, aBounds) : aFBPlayfield</text>
      <text x="2" y="29" style="clip-path:url(#clipPath8); stroke:none;" xml:space="preserve">+keyStroke:(anEvent)</text>
      <text x="2" y="44" style="clip-path:url(#clipPath8); stroke:none;" xml:space="preserve">+loadTheme:(aSymbol)</text>
    </g>
    <g transform="translate(432,202)" style="text-rendering:geometricPrecision; font-size:11; font-weight:bold; font-family:sans-serif;">
      <text x="132" y="12" style="clip-path:url(#clipPath9); stroke:none;" xml:space="preserve">FBWorld</text>
    </g>
    <g transform="translate(122,422)" style="stroke-linecap:butt; font-size:11; text-rendering:geometricPrecision; stroke-linejoin:round; font-family:sans-serif; font-weight:bold; stroke-miterlimit:0;">
      <rect x="0" y="0" width="120" style="clip-path:url(#clipPath10); fill:none;" height="50" />
      <line x1="0" x2="120" y1="15" style="clip-path:url(#clipPath10); fill:none;" y2="15" />
    </g>
    <g style="text-rendering:geometricPrecision; font-size:11; font-family:sans-serif;" transform="translate(122,437)">
      <text x="2" y="14" style="clip-path:url(#clipPath11); stroke:none;" xml:space="preserve">+cannonShoot()</text>
      <text x="2" y="29" style="clip-path:url(#clipPath11); stroke:none;" xml:space="preserve">+keyStroke:(anEvent)</text>
    </g>
    <g transform="translate(122,422)" style="text-rendering:geometricPrecision; font-size:11; font-weight:bold; font-family:sans-serif;">
      <text x="30" y="12" style="clip-path:url(#clipPath12); stroke:none;" xml:space="preserve">FBPlayfield</text>
    </g>
    <g transform="translate(272,282)" style="stroke-linecap:butt; font-size:11; text-rendering:geometricPrecision; font-family:sans-serif; stroke-linejoin:round; stroke-miterlimit:0;">
      <polygon style="fill:none; clip-path:url(#clipPath1);" points=" 0 0 204 0 219 15 204 15 204 0 219 15 219 59 0 59" />
    </g>
    <g style="text-rendering:geometricPrecision; font-size:12.3077; font-family:sans-serif;" transform="translate(272,282)">
      <text x="3" y="17" style="clip-path:url(#clipPath14); stroke:none;" xml:space="preserve">FBWorld does not navigate FBGame, </text>
      <text x="3" y="34" style="clip-path:url(#clipPath14); stroke:none;" xml:space="preserve">but it passes the reference on to other </text>
      <text x="3" y="51" style="clip-path:url(#clipPath14); stroke:none;" xml:space="preserve">Morphs (see Text)</text>
    </g>
    <g transform="translate(232,372)" style="stroke-linecap:butt; font-size:11; text-rendering:geometricPrecision; font-family:sans-serif; stroke-linejoin:round; stroke-miterlimit:0;">
      <polygon style="fill:none; clip-path:url(#clipPath15);" points=" 0 0 284 0 299 15 284 15 284 0 299 15 299 39 0 39" />
    </g>
    <g style="text-rendering:geometricPrecision; font-size:12.3077; font-family:sans-serif;" transform="translate(232,372)">
      <text x="3" y="17" style="clip-path:url(#clipPath16); stroke:none;" xml:space="preserve">FBGame passes on messages to FBPlayfields, but </text>
      <text x="3" y="34" style="clip-path:url(#clipPath16); stroke:none;" xml:space="preserve">does not navigate them</text>
    </g>
    <g transform="translate(2,2)" style="font-size:11; fill:rgb(243,231,248); text-rendering:geometricPrecision; font-family:sans-serif; stroke:rgb(243,231,248);">
      <path d="M8 0 C3.5817 0 0 3.5817 0 8 L0 31 C0 35.4183 3.5817 39 8 39 L71 39 C75.4183 39 79 35.4183 79 31 L79 8 C79 3.5817 75.4183 0 71 0 Z" style="clip-path:url(#clipPath18); stroke:none;" />
    </g>
    <g transform="translate(2,2)" style="stroke-linecap:butt; font-size:11; fill:rgb(204,147,225); text-rendering:geometricPrecision; stroke-linejoin:bevel; font-family:sans-serif; stroke:rgb(204,147,225); stroke-miterlimit:0;">
      <path d="M8 0 C3.5817 0 0 3.5817 0 8 L0 31 C0 35.4183 3.5817 39 8 39 L71 39 C75.4183 39 79 35.4183 79 31 L79 8 C79 3.5817 75.4183 0 71 0 Z" style="fill:none; clip-path:url(#clipPath18);" />
    </g>
    <g style="text-rendering:geometricPrecision; font-size:11; font-family:sans-serif;" transform="translate(252,442)">
      <text x="11" y="14" style="clip-path:url(#clipPath19); stroke:none;" xml:space="preserve">1..n</text>
    </g>
    <g style="text-rendering:geometricPrecision; font-size:11; font-family:sans-serif;" transform="translate(502,442)">
      <text x="17" y="14" style="clip-path:url(#clipPath19); stroke:none;" xml:space="preserve">1</text>
    </g>
    <g style="text-rendering:geometricPrecision; font-size:11; font-family:sans-serif;" transform="translate(552,402)">
      <text x="17" y="14" style="clip-path:url(#clipPath19); stroke:none;" xml:space="preserve">1</text>
    </g>
    <g style="text-rendering:geometricPrecision; font-size:11; font-family:sans-serif;" transform="translate(172,272)">
      <text x="17" y="14" style="clip-path:url(#clipPath19); stroke:none;" xml:space="preserve">1</text>
    </g>
    <g style="text-rendering:geometricPrecision; font-size:11; font-family:sans-serif;" transform="translate(142,402)">
      <text x="18" y="14" style="clip-path:url(#clipPath19); stroke:none;" xml:space="preserve">*</text>
    </g>
    <g style="text-rendering:geometricPrecision; font-size:11; font-family:sans-serif;" transform="translate(572,272)">
      <text x="17" y="14" style="clip-path:url(#clipPath19); stroke:none;" xml:space="preserve">1</text>
    </g>
    <g style="text-rendering:geometricPrecision; font-size:11; font-family:sans-serif;" transform="translate(302,212)">
      <text x="17" y="14" style="clip-path:url(#clipPath19); stroke:none;" xml:space="preserve">1</text>
    </g>
    <g style="text-rendering:geometricPrecision; font-size:11; font-family:sans-serif;" transform="translate(392,232)">
      <text x="18" y="14" style="clip-path:url(#clipPath19); stroke:none;" xml:space="preserve">*</text>
    </g>
    <g transform="translate(252,182)" style="font-size:11; stroke-linecap:butt; text-rendering:geometricPrecision; font-family:sans-serif; stroke-linejoin:round;">
      <line x1="50" x2="179" y1="50" style="clip-path:url(#clipPath20); fill:none;" y2="50" />
      <line x1="50" x2="62" y1="50" style="clip-path:url(#clipPath20); fill:none;" y2="56" />
      <line x1="50" x2="62" y1="50" style="clip-path:url(#clipPath20); fill:none;" y2="44" />
      <line x1="174" x2="165" y1="44" style="clip-path:url(#clipPath20); fill:none;" y2="56" />
      <line x1="174" x2="165" y1="56" style="clip-path:url(#clipPath20); fill:none;" y2="44" />
    </g>
    <g transform="translate(532,212)" style="font-size:11; stroke-linecap:butt; text-rendering:geometricPrecision; font-family:sans-serif; stroke-linejoin:round;">
      <line x1="50" x2="50" y1="209" style="clip-path:url(#clipPath21); fill:none;" y2="50" />
      <line x1="56" x2="44" y1="204" style="clip-path:url(#clipPath21); fill:none;" y2="195" />
      <line x1="44" x2="56" y1="204" style="clip-path:url(#clipPath21); fill:none;" y2="195" />
      <line x1="50" x2="44" y1="50" style="clip-path:url(#clipPath21); fill:none;" y2="62" />
      <line x1="50" x2="56" y1="50" style="clip-path:url(#clipPath21); fill:none;" y2="62" />
    </g>
    <g transform="translate(192,392)" style="font-size:11; stroke-linecap:butt; text-rendering:geometricPrecision; font-family:sans-serif; stroke-linejoin:round;">
      <line x1="50" x2="349" y1="50" style="clip-path:url(#clipPath22); fill:none;" y2="50" />
      <line x1="54" x2="63" y1="56" style="clip-path:url(#clipPath22); fill:none;" y2="44" />
      <line x1="54" x2="63" y1="44" style="clip-path:url(#clipPath22); fill:none;" y2="56" />
      <line x1="349" x2="337" y1="50" style="clip-path:url(#clipPath22); fill:none;" y2="44" />
      <line x1="349" x2="337" y1="50" style="clip-path:url(#clipPath22); fill:none;" y2="56" />
    </g>
    <g transform="translate(132,212)" style="font-size:11; stroke-linecap:butt; text-rendering:geometricPrecision; font-family:sans-serif; stroke-linejoin:round;">
      <line x1="50" x2="50" y1="50" style="clip-path:url(#clipPath21); fill:none;" y2="209" />
      <line x1="50" x2="44" y1="50" style="clip-path:url(#clipPath21); fill:none;" y2="62" />
      <line x1="50" x2="56" y1="50" style="clip-path:url(#clipPath21); fill:none;" y2="62" />
      <line x1="56" x2="44" y1="204" style="clip-path:url(#clipPath21); fill:none;" y2="195" />
      <line x1="44" x2="56" y1="204" style="clip-path:url(#clipPath21); fill:none;" y2="195" />
    </g>
    <g transform="translate(341,362)" style="stroke-linecap:butt; font-size:11; text-rendering:geometricPrecision; font-family:sans-serif; stroke-linejoin:round; stroke-dasharray:4;">
      <line x1="50" x2="50" y1="50" style="clip-path:url(#clipPath23); fill:none;" y2="80" />
    </g>
    <g transform="translate(442,262)" style="stroke-linecap:butt; font-size:11; text-rendering:geometricPrecision; font-family:sans-serif; stroke-linejoin:round; stroke-dasharray:4;">
      <line x1="50" x2="100" y1="50" style="clip-path:url(#clipPath24); fill:none;" y2="50" />
      <line x1="100" x2="100" y1="50" style="clip-path:url(#clipPath24); fill:none;" y2="80" />
      <line x1="100" x2="140" y1="80" style="clip-path:url(#clipPath24); fill:none;" y2="80" />
    </g>
    <g style="fill:rgb(120,120,120); text-rendering:geometricPrecision; font-size:8; stroke:rgb(120,120,120);">
      <text xml:space="preserve" x="0" y="10" style="stroke:none;">Visual Paradigm for UML Standard Edition(Hasso-Plattner-Institut)</text>
      <text xml:space="preserve" x="0" y="10" style="stroke:none;">Visual Paradigm for UML Standard Edition(Hasso-Plattner-Institut)</text>
    </g>
  </g>
</svg>
